<?xml version="1.0" encoding="utf-8"?>
<!-- Generator: Adobe Illustrator 18.0.0, SVG Export Plug-In . SVG Version: 6.00 Build 0)  -->
<!DOCTYPE svg PUBLIC "-//W3C//DTD SVG 1.1//EN" "http://www.w3.org/Graphics/SVG/1.1/DTD/svg11.dtd">
<svg version="1.1" id="Layer_1" xmlns="http://www.w3.org/2000/svg" xmlns:xlink="http://www.w3.org/1999/xlink" x="0px" y="0px"
	 viewBox="0 0 512 512" enable-background="new 0 0 512 512" xml:space="preserve">
<g>
	<g>
		<g>
			<path fill="#FFFFFF" d="M490.7,0H213.3H128H21.3C9.6,0,0,9.6,0,21.3v128v85.3v255.9c0,0,0,0,0,0v0.1c0,0.2,0,0.4,0,0.6
				c0,0.5,0,1,0.1,1.4c0,0.4,0.1,0.7,0.1,1.1c0,0.3,0.1,0.7,0.2,1c0.1,0.4,0.2,0.8,0.3,1.1c0.1,0.3,0.1,0.6,0.2,0.9
				c0.1,0.4,0.2,0.7,0.4,1.1c0.1,0.3,0.2,0.6,0.3,0.9c0.1,0.3,0.3,0.6,0.4,1c0.1,0.3,0.3,0.6,0.5,0.9c0.1,0.3,0.3,0.5,0.5,0.8
				c0.2,0.3,0.4,0.7,0.6,1c0.2,0.3,0.3,0.5,0.5,0.7c0.2,0.3,0.5,0.6,0.7,0.9c0.2,0.3,0.4,0.5,0.7,0.8c0.2,0.3,0.5,0.5,0.7,0.8
				c0.3,0.3,0.7,0.7,1,1c0.2,0.1,0.3,0.3,0.5,0.4c0,0,0,0,0,0c0.5,0.5,1.1,0.9,1.7,1.3c0,0,0.1,0.1,0.1,0.1c0.5,0.4,1.1,0.7,1.7,1
				c0.3,0.1,0.5,0.3,0.8,0.4c0.4,0.2,0.7,0.4,1.1,0.5c0.3,0.1,0.7,0.2,1,0.4c0.3,0.1,0.6,0.2,1,0.4c0.4,0.1,0.8,0.2,1.2,0.3
				c0.3,0.1,0.6,0.2,0.9,0.2c0.6,0.1,1.3,0.2,1.9,0.3c0,0,0.1,0,0.1,0c0.7,0.1,1.4,0.1,2.1,0.1c0,0,0,0,0,0h149.3
				c11.8,0,21.3-9.6,21.3-21.3s-9.6-21.3-21.3-21.3H66.9l77.5-93c3.2-3.8,4.9-8.7,4.9-13.7v-128c0-11.8-9.6-21.3-21.3-21.3H42.7
				v-42.7H128c11.8,0,21.3-9.6,21.3-21.3V42.7H192v170.7c0,18.2,21.4,28.1,35.2,16.2l218-186.9h24.1v128c0,11.8,9.6,21.3,21.3,21.3
				s21.3-9.6,21.3-21.3V21.3C512,9.6,502.4,0,490.7,0z M106.7,256v98.9l-64,76.8V256H106.7z M106.7,128h-64V42.7h64V128z
				 M234.7,166.9V42.7h145L234.7,166.9z"/>
			<path fill="#FFFFFF" d="M362.7,341.3c-11.8,0-21.3,9.6-21.3,21.3v64c0,11.8,9.6,21.3,21.3,21.3s21.3-9.6,21.3-21.3v-64
				C384,350.9,374.4,341.3,362.7,341.3z"/>
			<path fill="#FFFFFF" d="M362.7,277.3c-11.8,0-21.3,9.6-21.3,21.3s9.6,21.3,21.3,21.3s21.3-9.6,21.3-21.3S374.4,277.3,362.7,277.3
				z"/>
			<path fill="#FFFFFF" d="M362.7,213.3c-82.5,0-149.3,66.9-149.3,149.3S280.2,512,362.7,512S512,445.1,512,362.7
				S445.1,213.3,362.7,213.3z M362.7,469.3c-58.9,0-106.7-47.8-106.7-106.7S303.8,256,362.7,256s106.7,47.8,106.7,106.7
				C469.3,421.6,421.6,469.3,362.7,469.3z"/>
		</g>
	</g>
</g>
</svg>
