<?xml version="1.0" encoding="utf-8"?>
<!-- Generator: Adobe Illustrator 18.0.0, SVG Export Plug-In . SVG Version: 6.00 Build 0)  -->
<!DOCTYPE svg PUBLIC "-//W3C//DTD SVG 1.1//EN" "http://www.w3.org/Graphics/SVG/1.1/DTD/svg11.dtd">
<svg version="1.1" id="Calque_1" xmlns="http://www.w3.org/2000/svg" xmlns:xlink="http://www.w3.org/1999/xlink" x="0px" y="0px"
	 viewBox="0 0 512 512" enable-background="new 0 0 512 512" xml:space="preserve">
<g>
	<text transform="matrix(1 0 0 1 11.96 344.0957)" fill="#FFFFFF" font-family="'Asap-Bold'" font-size="77.2525">E</text>
	<text transform="matrix(1 0 0 1 454.2627 344.0957)" fill="#FFFFFF" font-family="'Asap-Bold'" font-size="77.2525">F</text>
	<path fill="#FFFFFF" d="M263.5,104.3c0,1.7-1.3,3-3,3h-17.7c-1.7,0-3-1.3-3-3v-72c0-1.7,1.3-3,3-3h17.7c1.7,0,3,1.3,3,3V104.3z"/>
	<path fill="#FFFFFF" d="M129.8,132c0.7,0.8,0.7,1.9,0.1,2.4l-6.8,5.7c-0.6,0.5-1.7,0.3-2.4-0.5l-29.4-35c-0.7-0.8-0.7-1.9-0.1-2.4
		l6.8-5.7c0.6-0.5,1.7-0.3,2.4,0.5L129.8,132z"/>
	<path fill="#FFFFFF" d="M375,132c-0.7,0.8-0.7,1.9-0.1,2.4l6.8,5.7c0.6,0.5,1.7,0.3,2.4-0.5l29.4-35c0.7-0.8,0.7-1.9,0.1-2.4
		l-6.8-5.7c-0.6-0.5-1.7-0.3-2.4,0.5L375,132z"/>
	<path fill="#FFFFFF" d="M431.1,200.5c-1,0.4-1.4,1.4-1.1,2.2l3.7,8c0.3,0.8,1.4,1,2.4,0.6l41.4-19.3c1-0.4,1.4-1.4,1.1-2.2l-3.7-8
		c-0.3-0.8-1.4-1-2.4-0.6L431.1,200.5z"/>
	<path fill="#FFFFFF" d="M71,200.5c1,0.4,1.4,1.4,1.1,2.2l-3.7,8c-0.3,0.8-1.4,1-2.4,0.6l-41.4-19.3c-1-0.4-1.4-1.4-1.1-2.2l3.7-8
		c0.3-0.8,1.4-1,2.4-0.6L71,200.5z"/>
	<g>
		
			<rect x="15.5" y="238.3" transform="matrix(-1 1.154097e-003 -1.154097e-003 -1 86.4523 505.1973)" fill="#FFFFFF" stroke="#FFFFFF" stroke-width="4" stroke-miterlimit="10" width="55.1" height="28.7"/>
		
			<rect x="4.7" y="242.6" transform="matrix(-1 1.248749e-003 -1.248749e-003 -1 15.9219 505.3197)" fill="#FFFFFF" stroke="#FFFFFF" stroke-width="4" stroke-miterlimit="10" width="6.2" height="20.2"/>
	</g>
	<g>
		
			<rect x="441.8" y="238.3" transform="matrix(1 1.154165e-003 -1.154165e-003 1 0.2919 -0.5415)" fill="#FFFFFF" stroke="#FFFFFF" stroke-width="4" stroke-miterlimit="10" width="55.1" height="28.7"/>
		
			<rect x="501.5" y="242.6" transform="matrix(1 1.248777e-003 -1.248777e-003 1 0.3159 -0.63)" fill="#FFFFFF" stroke="#FFFFFF" stroke-width="4" stroke-miterlimit="10" width="6.2" height="20.2"/>
	</g>
	<rect x="462" y="241.7" fill="#FFFFFF" width="7.5" height="21.8"/>
	<rect x="453" y="241.7" fill="#FFFFFF" width="7.5" height="21.8"/>
	<rect x="445.1" y="241.7" fill="#FFFFFF" width="6.5" height="21.8"/>
	<rect x="471" y="241.7" fill="#FFFFFF" width="7.5" height="21.8"/>
	<rect x="480" y="241.7" fill="#FFFFFF" width="7.5" height="21.8"/>
	<rect x="489" y="241.7" fill="#FFFFFF" width="4" height="21.8"/>
	<rect x="469.5" y="240.7" fill="#FFFFFF" width="1.5" height="1.1"/>
	<g>
		<circle fill="#FFFFFF" cx="251.7" cy="457.1" r="22"/>
		<circle fill="#FFFFFF" cx="251.7" cy="457.1" r="12.5"/>
	</g>
	<path fill="#FFFFFF" d="M254.4,464.6c-1.9,1.9-4.8,2.2-6.4,0.6l-3.7-3.7c-1.6-1.6-1.3-4.5,0.6-6.4l165.3-163.5
		c1.9-1.9,20.9-14.3,22.5-12.7l0,0c1.6,1.6-11.1,20.3-13,22.3L254.4,464.6z"/>
	<path fill="#FFFFFF" d="M314.2,307.4c-1.1-4.7-3.7-7.7-6.1-10.3c-3.4-3.8-6.5-7.3-6.5-16.8v-29.5l0-0.3c-0.1-0.8,0.3-6-13.2-14.1
		c-3.6-2.2-6.5-3.2-8.4-4.2c0-4.1-3.3-7.5-7.5-7.5h-48.6c-4.1,0-7.5,3.3-7.5,7.5v95h-0.3c-4.1,0-7.5,3.3-7.5,7.5v4.9h79v-4.9
		c0-4.1-3.3-7.5-7.5-7.5H280v-48.4c0.8,0,1.5,0.1,1.9,0.3v30.4c-0.1,1.4-0.3,6.7,3.4,11c2.8,3.1,6.8,4.7,12.1,4.7
		c7.6,0,12.5-1.6,15.2-5C315.7,316.3,315.1,311.3,314.2,307.4z M228.3,246.5c0-3.1,2.5-5.7,5.7-5.7h28.5c3.1,0,5.7,2.5,5.7,5.7v8.5
		c0,3.1-2.5,5.7-5.7,5.7H234c-3.1,0-5.7-2.5-5.7-5.7V246.5z M306.8,315.5c-0.7,0.8-2.8,2.2-9.4,2.2c-3,0-5.2-0.7-6.5-2.2
		c-1.9-2.1-1.6-5.4-1.6-5.4l0-31.4c0-2-0.8-3.8-2.3-5.1c-2-1.7-4.8-2.2-7-2.3v-30.8c1.5,0.7,3.2,1.6,5.2,2.5c7.7,3.6,8.8,7.6,8.9,8
		v29.2c0,12.3,4.7,17.6,8.4,21.8c2.1,2.3,3.7,4.2,4.4,7C307.7,312.3,307.7,314.5,306.8,315.5z"/>
</g>
</svg>
