<?xml version="1.0" encoding="iso-8859-1"?>
<!-- Generator: Adobe Illustrator 19.0.0, SVG Export Plug-In . SVG Version: 6.00 Build 0)  -->
<svg xmlns="http://www.w3.org/2000/svg" xmlns:xlink="http://www.w3.org/1999/xlink" version="1.1" id="Capa_1" x="0px" y="0px" viewBox="0 0 409.491 409.491" style="enable-background:new 0 0 409.491 409.491;" xml:space="preserve" width="512px" height="512px">
<g>
	<g>
		<g>
			<path d="M190.062,89.648h208.98c5.771,0,10.449-4.678,10.449-10.449s-4.678-10.449-10.449-10.449h-208.98     c-5.771,0-10.449,4.678-10.449,10.449S184.291,89.648,190.062,89.648z" fill="#FFFFFF"/>
			<path d="M190.062,173.24h151.51c5.771,0,10.449-4.678,10.449-10.449c0-5.771-4.678-10.449-10.449-10.449h-151.51     c-5.771,0-10.449,4.678-10.449,10.449C179.613,168.561,184.291,173.24,190.062,173.24z" fill="#FFFFFF"/>
			<path d="M399.042,235.933h-208.98c-5.771,0-10.449,4.678-10.449,10.449s4.678,10.449,10.449,10.449h208.98     c5.771,0,10.449-4.678,10.449-10.449S404.812,235.933,399.042,235.933z" fill="#FFFFFF"/>
			<path d="M299.776,319.525H190.062c-5.771,0-10.449,4.678-10.449,10.449s4.678,10.449,10.449,10.449h109.714     c5.771,0,10.449-4.678,10.449-10.449S305.547,319.525,299.776,319.525z" fill="#FFFFFF"/>
			<path d="M123.189,131.444c6.058-0.141,10.854-5.166,10.714-11.223c-0.055-2.378-0.882-4.673-2.354-6.54L75.123,37.925     c-3.925-4.617-10.849-5.178-15.465-1.253c-0.451,0.383-0.87,0.802-1.253,1.253L1.98,113.158     c-2.205,3.623-2.592,8.067-1.045,12.016c2.021,3.408,5.481,5.714,9.404,6.269H53.18v146.286H10.34     c-3.923,0.555-7.383,2.861-9.404,6.269c-1.54,3.773-1.151,8.06,1.045,11.494l56.424,75.755c2.024,2.57,5.089,4.102,8.359,4.18     c3.309,0.088,6.444-1.48,8.359-4.18l56.424-75.233c2.379-3.564,2.773-8.095,1.045-12.016c-1.82-3.593-5.387-5.972-9.404-6.269     H79.303V131.444H123.189z" fill="#FFFFFF"/>
		</g>
	</g>
</g>
<g>
</g>
<g>
</g>
<g>
</g>
<g>
</g>
<g>
</g>
<g>
</g>
<g>
</g>
<g>
</g>
<g>
</g>
<g>
</g>
<g>
</g>
<g>
</g>
<g>
</g>
<g>
</g>
<g>
</g>
</svg>
