<?xml version="1.0" encoding="utf-8"?>
<!-- Generator: Adobe Illustrator 18.0.0, SVG Export Plug-In . SVG Version: 6.00 Build 0)  -->
<!DOCTYPE svg PUBLIC "-//W3C//DTD SVG 1.1//EN" "http://www.w3.org/Graphics/SVG/1.1/DTD/svg11.dtd">
<svg version="1.1" id="Capa_1" xmlns="http://www.w3.org/2000/svg" xmlns:xlink="http://www.w3.org/1999/xlink" x="0px" y="0px"
	 viewBox="0 0 512 512" enable-background="new 0 0 512 512" xml:space="preserve">
<g>
	<path fill="#FFFFFF" d="M244.6,320.3c3.2,2.9,7.3,4.3,11.4,4.3c4.1,0,8.1-1.4,11.4-4.3c4.1-3.6,100.7-89.7,100.7-178.9
		c0-61.8-50.2-112.1-112-112.1c-61.8,0-112,50.3-112,112.1C144,230.6,240.5,316.7,244.6,320.3z M256,112.1c16,0,29,13.1,29,29.3
		c0,16.2-13,29.3-29,29.3c-16,0-29-13.1-29-29.3C227,125.2,240,112.1,256,112.1z"/>
	<path fill="#FFFFFF" d="M471.2,320.3l-13-45.5c-2.1-7.4-8.8-12.5-16.5-12.5h-92.6c-3.3,5-6.9,10-10.6,15
		c-26,34.9-52.3,58.5-55.3,61c-7.5,6.6-17.2,10.3-27.3,10.3c-10,0-19.7-3.6-27.3-10.3c-2.9-2.6-29.3-26.2-55.3-61
		c-3.7-5-7.3-10-10.6-15H70.3c-7.7,0-14.4,5.1-16.5,12.5L38.3,329L384,392.3L471.2,320.3z"/>
	<path fill="#FFFFFF" d="M511.3,460.8l-33.2-116.2L313.7,482.7h181.1c5.4,0,10.5-2.5,13.7-6.8C511.8,471.5,512.8,466,511.3,460.8z"
		/>
	<path fill="#FFFFFF" d="M84.1,361.8l-52.5-9.6l-31,108.6c-1.5,5.2-0.4,10.8,2.8,15.1c3.2,4.3,8.3,6.8,13.7,6.8h66.9V361.8z"/>
	<polygon fill="#FFFFFF" points="108.2,366.2 108.2,482.7 276.3,482.7 360.1,412.4 	"/>
</g>
</svg>
