<?xml version="1.0" encoding="utf-8"?>
<!-- Generator: Adobe Illustrator 18.0.0, SVG Export Plug-In . SVG Version: 6.00 Build 0)  -->
<!DOCTYPE svg PUBLIC "-//W3C//DTD SVG 1.1//EN" "http://www.w3.org/Graphics/SVG/1.1/DTD/svg11.dtd">
<svg version="1.1" id="Capa_1" xmlns="http://www.w3.org/2000/svg" xmlns:xlink="http://www.w3.org/1999/xlink" x="0px" y="0px"
	 viewBox="0 0 512 512" enable-background="new 0 0 512 512" xml:space="preserve">
<g>
	<path fill="#FFFFFF" d="M511.3,460.8l-53.1-186c-2.1-7.4-8.8-12.5-16.5-12.5H319.7c24.5-33,48.3-76.6,48.3-120.9
		c0-61.8-50.2-112.1-112-112.1c-61.8,0-112,50.3-112,112.1c0,44.3,23.8,87.9,48.3,120.9H70.3c-7.7,0-14.4,5.1-16.5,12.5l-53.1,186
		c-1.5,5.2-0.4,10.8,2.8,15.1c3.2,4.3,8.3,6.8,13.7,6.8h477.6c5.4,0,10.5-2.5,13.7-6.8C511.8,471.5,512.8,466,511.3,460.8z
		 M256,63.7c42.8,0,77.7,34.9,77.7,77.7c0,57.5-53.7,118-77.7,142.2c-24-24.2-77.7-84.7-77.7-142.2C178.3,98.5,213.2,63.7,256,63.7z
		 M220.9,296.7c12.9,13.9,22.5,22.5,23.8,23.6c3.2,2.9,7.3,4.3,11.4,4.3c4.1,0,8.1-1.4,11.4-4.3c1.2-1.1,10.9-9.7,23.8-23.6h137.6
		l4.8,16.7l-66.5,55.4L77.7,316.2l5.6-19.5L220.9,296.7L220.9,296.7z M131.4,448.3v-87.4l201.3,36.6l-61,50.9H131.4z M68.2,349.4
		l28.9,5.3v93.7H39.9L68.2,349.4z M325.3,448.3l118.5-98.8l28.2,98.8H325.3z"/>
	<path fill="#FFFFFF" d="M302.2,141.4c0-25.6-20.7-46.5-46.2-46.5s-46.2,20.8-46.2,46.5c0,25.6,20.7,46.5,46.2,46.5
		C281.5,187.8,302.2,167,302.2,141.4z M244.1,141.4c0-6.7,5.3-12.1,11.9-12.1c6.5,0,11.9,5.4,11.9,12.1s-5.3,12.1-11.9,12.1
		C249.5,153.5,244.1,148.1,244.1,141.4z"/>
</g>
</svg>
