<?xml version="1.0" encoding="utf-8"?>
<!-- Generator: Adobe Illustrator 18.0.0, SVG Export Plug-In . SVG Version: 6.00 Build 0)  -->
<!DOCTYPE svg PUBLIC "-//W3C//DTD SVG 1.1//EN" "http://www.w3.org/Graphics/SVG/1.1/DTD/svg11.dtd">
<svg version="1.1" id="Capa_1" xmlns="http://www.w3.org/2000/svg" xmlns:xlink="http://www.w3.org/1999/xlink" x="0px" y="0px"
	 viewBox="0 0 512 512" enable-background="new 0 0 512 512" xml:space="preserve">
<g>
	<g>
		<path fill="#FFFFFF" d="M50,141.5v290h332v-290H50z M80,171.5h110v30H80V171.5z M352,401.5H202v-30h150V401.5z M352,341.5H172v60
			h-27v-101h65.9c5.9,14.6,20.3,25,37.1,25c22.1,0,40-17.9,40-40s-17.9-40-40-40c-16.8,0-31.1,10.4-37.1,25H115v131H80v-170h140v-60
			h62v60h70V341.5z M238,285.5c0-5.5,4.5-10,10-10s10,4.5,10,10s-4.5,10-10,10S238,291,238,285.5z M352,201.5h-40v-30h40V201.5z"/>
	</g>
</g>
<g>
	<g>
		<path fill="#FFFFFF" d="M487,323.4V107.6c14.6-5.9,25-20.3,25-37.1c0-22.1-17.9-40-40-40s-40,17.9-40,40c0,16.8,10.4,31.1,25,37.1
			v212.9h-25v-184c0-24.8-20.2-45-45-45H45c-24.8,0-45,20.2-45,45v300c0,24.8,20.2,45,45,45h342c24.8,0,45-20.2,45-45v-36h40
			c22.1,0,40-17.9,40-40C512,343.7,501.6,329.4,487,323.4z M402,436.5c0,8.3-6.7,15-15,15H45c-8.3,0-15-6.7-15-15v-300
			c0-8.3,6.7-15,15-15h342c8.3,0,15,6.7,15,15V436.5z M472,370.5h-40v-20h40c5.5,0,10,4.5,10,10S477.5,370.5,472,370.5z M472,80.5
			c-5.5,0-10-4.5-10-10s4.5-10,10-10s10,4.5,10,10S477.5,80.5,472,80.5z"/>
	</g>
</g>
</svg>
