<?xml version="1.0" encoding="utf-8"?>
<!-- Generator: Adobe Illustrator 18.0.0, SVG Export Plug-In . SVG Version: 6.00 Build 0)  -->
<!DOCTYPE svg PUBLIC "-//W3C//DTD SVG 1.1//EN" "http://www.w3.org/Graphics/SVG/1.1/DTD/svg11.dtd">
<svg version="1.1" id="Capa_1" xmlns="http://www.w3.org/2000/svg" xmlns:xlink="http://www.w3.org/1999/xlink" x="0px" y="0px"
	 viewBox="0 0 512 512" enable-background="new 0 0 512 512" xml:space="preserve">
<path fill="#FFFFFF" stroke="#FFFFFF" stroke-width="10" stroke-miterlimit="10" d="M455.7,160.6v206.5c0,21.8-17.8,39.6-39.6,39.6
	H56.9c-21.8,0-39.6-17.8-39.6-39.6V112.7c0-21.8,17.8-39.6,39.6-39.6h309.6c5.9,0,10.6,4.8,10.6,10.6c0,5.9-4.8,10.6-10.6,10.6H56.9
	c-10.1,0-18.4,8.2-18.4,18.4v254.3c0,10.1,8.2,18.4,18.4,18.4h359.3c10.1,0,18.4-8.2,18.4-18.4V160.6c0-5.9,4.8-10.6,10.6-10.6
	C451,149.9,455.7,154.7,455.7,160.6z M278.4,429.8h-83.7c-5.9,0-10.6,4.8-10.6,10.6s4.8,10.6,10.6,10.6h83.7
	c5.9,0,10.6-4.8,10.6-10.6S284.2,429.8,278.4,429.8z M425.7,31.7c-5.9,0-10.6,4.8-10.6,10.6S419.8,53,425.7,53
	c27,0,48.9,22,48.9,48.9c0,5.9,4.8,10.6,10.6,10.6c5.9,0,10.6-4.8,10.6-10.6C495.9,63.2,464.4,31.7,425.7,31.7z M403.4,136.1
	L403.4,136.1c5.9,0,10.6-4.8,10.6-10.6c0-5.9-4.8-10.6-10.6-10.6c-5.9,0-10.6,4.8-10.6,10.6C392.7,131.3,397.5,136.1,403.4,136.1z
	 M244.1,302.6c-2,2.1-4.7,3.2-7.6,3.2c-2.9,0-5.6-1.2-7.6-3.2c-4.6-4.7-9.8-9.6-15.3-14.7c-23.3-21.6-49.6-46.2-49.6-80.7
	c0-40,32.5-72.5,72.5-72.5c40,0,72.5,32.5,72.5,72.5c0,34.6-26.4,59.1-49.6,80.7C253.9,293.1,248.7,297.9,244.1,302.6z M244.9,272.4
	c21.1-19.6,42.8-39.9,42.8-65.2c0-28.3-23-51.3-51.3-51.3c-28.3,0-51.3,23-51.3,51.3c0,25.3,21.8,45.6,42.9,65.2
	c2.9,2.7,5.7,5.3,8.4,7.9C239.2,277.7,242,275.1,244.9,272.4z M416.1,73.2c-5.9,0-10.6,4.8-10.6,10.6c0,5.9,4.8,10.6,10.6,10.6
	c10.1,0,18.4,8.2,18.4,18.4c0,5.9,4.8,10.6,10.6,10.6c5.9,0,10.6-4.8,10.6-10.6C455.7,90.9,438,73.2,416.1,73.2z M236.5,323.8
	c-5.9,0-10.6,4.8-10.6,10.6s4.8,10.6,10.6,10.6h0c5.9,0,10.6-4.8,10.6-10.6S242.4,323.8,236.5,323.8z"/>
</svg>
