<?xml version="1.0" encoding="utf-8"?>
<!-- Generator: Adobe Illustrator 18.0.0, SVG Export Plug-In . SVG Version: 6.00 Build 0)  -->
<!DOCTYPE svg PUBLIC "-//W3C//DTD SVG 1.1//EN" "http://www.w3.org/Graphics/SVG/1.1/DTD/svg11.dtd">
<svg version="1.1" id="Capa_1" xmlns="http://www.w3.org/2000/svg" xmlns:xlink="http://www.w3.org/1999/xlink" x="0px" y="0px"
	 viewBox="0 0 512 512" enable-background="new 0 0 512 512" xml:space="preserve">
<g>
	<path fill="#FFFFFF" d="M256,0C152.9,0,69,83.9,69,187c0,62.3,57.3,160.6,81.9,200c20.3,32.4,42,63.2,61.3,86.7
		C243.5,512,252.2,512,256,512c3.6,0,12,0,43.2-38.3c19.3-23.7,41.1-54.5,61.3-86.7c24.8-39.5,82.5-138,82.5-200
		C443,83.9,359.1,0,256,0z M256,338.1c-81.6,0-148-66.4-148-148s66.4-148,148-148s148,66.4,148,148S337.6,338.1,256,338.1z"/>
	<path fill="#FFFFFF" d="M364,133.4c-1,0-2.1,0.1-3.1,0.4l-11.9,3.3l-12.3-30c-3.5-8.5-13.8-15.4-23-15.4H198.2
		c-9.2,0-19.5,6.9-23,15.4l-12.3,30l-11.7-3.2c-1-0.3-2.1-0.4-3.1-0.4c-5.6,0-9.7,4.3-9.7,10.2v7c0,6.9,5.6,12.5,12.5,12.5h1.3
		l-2,4.8c-3.2,7.9-5.9,21.3-5.9,29.9v59.7c0,6.9,5.6,12.5,12.5,12.5h16.3c6.9,0,12.5-5.6,12.5-12.5v-14.9h140.6v14.9
		c0,6.9,5.6,12.5,12.5,12.5H355c6.9,0,12.5-5.6,12.5-12.5v-59.7c0-8.6-2.6-21.9-5.9-29.9l-2-4.8h1.5c6.9,0,12.5-5.6,12.5-12.5v-7
		C373.7,137.6,369.6,133.4,364,133.4z M171.8,156.3l18.7-45.5c2.1-5.1,8.3-9.3,13.8-9.3h103.3c5.5,0,11.7,4.2,13.8,9.3l18.7,45.5
		c2.1,5.1-0.7,9.3-6.2,9.3H178C172.5,165.5,169.7,161.4,171.8,156.3z M213.5,213.8c0,2.8-2.3,5-5,5H173c-2.8,0-5-2.3-5-5v-17
		c0-2.8,2.3-5,5-5h35.4c2.8,0,5,2.3,5,5V213.8z M343.5,213.8c0,2.8-2.3,5-5,5H303c-2.8,0-5-2.3-5-5v-17c0-2.8,2.3-5,5-5h35.4
		c2.8,0,5,2.3,5,5V213.8z"/>
</g>
</svg>
