<?xml version="1.0" encoding="utf-8"?>
<!-- Generator: Adobe Illustrator 18.0.0, SVG Export Plug-In . SVG Version: 6.00 Build 0)  -->
<!DOCTYPE svg PUBLIC "-//W3C//DTD SVG 1.1//EN" "http://www.w3.org/Graphics/SVG/1.1/DTD/svg11.dtd">
<svg version="1.1" id="Capa_1" xmlns="http://www.w3.org/2000/svg" xmlns:xlink="http://www.w3.org/1999/xlink" x="0px" y="0px"
	 viewBox="0 0 512 512" enable-background="new 0 0 512 512" xml:space="preserve">
<g>
	<path fill="#FFFFFF" stroke="#FFFFFF" stroke-width="5" stroke-miterlimit="10" d="M440.5,20h-371C41.1,20,18,43.1,18,71.5v371
		c0,28.4,23.1,51.5,51.5,51.5h371c28.4,0,51.5-23.1,51.5-51.5v-371C492,43.1,468.9,20,440.5,20z M31.9,145.2h97.4V250H31.9V145.2z
		 M143.2,145.2H248V250H143.2V145.2z M143.2,131.3V33.9H248v97.4H143.2z M69.5,33.9h59.8v97.4H31.9V71.5
		C31.9,50.8,48.8,33.9,69.5,33.9z M31.9,442.5v-59.8H114c3.8,0,7-3.1,7-7c0-3.8-3.1-7-7-7H31.9V264h97.4v89.5c0,3.8,3.1,7,7,7
		s7-3.1,7-7V264H248v59.8c0,3.8,3.1,7,7,7c3.8,0,7-3.1,7-7V264h67.3c3.8,0,7-3.1,7-7c0-3.8-3.1-7-7-7H262V145.2h7.9c3.8,0,7-3.1,7-7
		s-3.1-7-7-7H262V33.9h104.8v0.5c0,3.8,3.1,7,7,7c3.8,0,7-3.1,7-7v-0.5h59.8c20.7,0,37.6,16.9,37.6,37.6v59.8h-0.5c-3.8,0-7,3.1-7,7
		s3.1,7,7,7h0.5V250h-59.8c-3.8,0-7,3.1-7,7c0,3.8,3.1,7,7,7h59.8v104.8h-97.4v-30.1c0-3.8-3.1-7-7-7c-3.8,0-7,3.1-7,7v30.1h-89.5
		c-3.8,0-7,3.1-7,7c0,3.8,3.1,7,7,7h89.5v97.4H262v-89.5c0-3.8-3.1-7-7-7s-7,3.1-7,7v89.5H143.2v-59.8c0-3.8-3.1-7-7-7s-7,3.1-7,7
		v59.8H69.5C48.8,480.1,31.9,463.2,31.9,442.5z M440.5,480.1h-59.8v-97.4h97.4v59.8C478.1,463.2,461.2,480.1,440.5,480.1z"/>
	<path fill="#FFFFFF" stroke="#FFFFFF" stroke-width="5" stroke-miterlimit="10" d="M369.8,262.7c1.2,0.8,2.6,1.2,3.9,1.2
		c1.4,0,2.8-0.4,4-1.3c0.8-0.6,19.5-13.7,38.4-35.5c25.4-29.2,38.8-60,38.8-89c0-44.8-36.4-81.2-81.2-81.2s-81.2,36.4-81.2,81.2
		c0,29.4,13.4,60.3,38.8,89.3C350.3,249.2,369,262.2,369.8,262.7z M306.5,138.3c0-37.1,30.2-67.3,67.3-67.3s67.3,30.2,67.3,67.3
		c0,53.7-52.3,98.4-67.3,110.1C358.7,236.8,306.5,192.8,306.5,138.3z"/>
	<path fill="#FFFFFF" stroke="#FFFFFF" stroke-width="5" stroke-miterlimit="10" d="M417.8,138.3c0-6.1-1.2-12.1-3.7-17.7
		c-1.5-3.5-5.6-5.1-9.2-3.6c-3.5,1.5-5.1,5.6-3.6,9.2c1.7,3.8,2.5,7.9,2.5,12.1c0,16.6-13.5,30.1-30.1,30.1
		c-16.6,0-30.1-13.5-30.1-30.1s13.5-30.1,30.1-30.1c4.2,0,8.3,0.8,12.1,2.5c3.5,1.5,7.6-0.1,9.2-3.6c1.5-3.5-0.1-7.6-3.6-9.2
		c-5.6-2.4-11.5-3.7-17.6-3.7c-24.3,0-44.1,19.8-44.1,44.1s19.8,44.1,44.1,44.1C398,182.3,417.8,162.6,417.8,138.3z"/>
	<path fill="#FFFFFF" stroke="#FFFFFF" stroke-width="5" stroke-miterlimit="10" d="M63.6,421.8c-1.6,0-3.2,0.6-4.4,1.6
		c-0.5,0.4-1,0.8-1.4,1.2c0,0-0.1,0.1-0.1,0.1h0c-4.6,3.9-8.6,8-11.9,12.2c-3.5,4.4-6.4,9.1-8.6,13.9c-0.1,0.3-0.3,0.6-0.4,1
		c-0.2,0.3-0.3,0.6-0.5,0.9c0,0,0,0,0,0c-1.5,3.5,0.2,7.6,3.8,9.1c0.9,0.4,1.8,0.5,2.7,0.5c2.8,0,5.3-1.7,6.4-4.3c0,0,0,0,0,0
		c0.1-0.2,0.2-0.5,0.3-0.8c0.1-0.2,0.3-0.5,0.4-0.7c3.4-7.4,9.1-14.6,16.9-21.3c0.5-0.4,0.9-0.8,1.3-1.1c2.9-2.4,3.4-6.8,0.9-9.8
		C67.7,422.7,65.7,421.8,63.6,421.8z"/>
	<path fill="#FFFFFF" stroke="#FFFFFF" stroke-width="5" stroke-miterlimit="10" d="M149.4,394.7c0.7,0,1.5-0.1,2.2-0.3c0,0,0,0,0,0
		c0.3-0.1,0.6-0.2,0.9-0.3c0.3-0.1,0.6-0.1,0.9-0.2c8.6-2.8,18.1-5.7,29.1-8.9c0.6-0.2,1.1-0.3,1.7-0.5l0.1,0
		c3.7-1.1,5.8-4.9,4.7-8.6c-0.9-2.9-3.6-5-6.7-5c-0.7,0-1.3,0.1-1.9,0.3l0,0c-0.5,0.1-1,0.3-1.4,0.4l-0.4,0.1
		c-11.1,3.2-20.8,6.2-29.5,9c-0.3,0.1-0.6,0.2-0.9,0.3c-0.3,0.1-0.6,0.1-0.9,0.2c-3.6,1.2-5.6,5.1-4.5,8.8
		C143.8,392.8,146.4,394.7,149.4,394.7z"/>
	<path fill="#FFFFFF" stroke="#FFFFFF" stroke-width="5" stroke-miterlimit="10" d="M274.4,358.2c0.7,0,1.4-0.1,2.1-0.3h0
		c0.3-0.1,0.6-0.2,0.9-0.3c0.3-0.1,0.6-0.1,0.9-0.2c11.1-3.5,20.7-6.8,29.4-10.1c0.6-0.2,1.2-0.4,1.8-0.7c1.7-0.7,3.1-2,3.8-3.7
		c0.8-1.7,0.8-3.6,0.1-5.3c-1-2.7-3.6-4.5-6.5-4.5c-0.9,0-1.7,0.2-2.5,0.5l-0.2,0.1c-0.5,0.2-1,0.4-1.5,0.6
		c-8.4,3.2-17.8,6.4-28.6,9.9c-0.3,0.1-0.6,0.2-0.9,0.3c-0.3,0-0.6,0.1-0.9,0.2c-1.8,0.6-3.2,1.8-4.1,3.4c-0.9,1.6-1,3.5-0.5,5.3
		C268.6,356.3,271.3,358.2,274.4,358.2z"/>
	<path fill="#FFFFFF" stroke="#FFFFFF" stroke-width="5" stroke-miterlimit="10" d="M211.8,376.3c0.6,0,1.3-0.1,1.9-0.3
		c0.3-0.1,0.6-0.2,0.9-0.3c0.3,0,0.6-0.1,0.9-0.2l3-0.8c8.7-2.4,17.7-4.9,26.4-7.4c0,0,0.1,0,0.1,0c0.6-0.2,1.2-0.3,1.8-0.5
		c1.8-0.5,3.3-1.7,4.2-3.3c0.9-1.6,1.1-3.5,0.6-5.3c-0.9-3-3.6-5-6.7-5c-0.6,0-1.3,0.1-1.9,0.3h0l-0.7,0.2c-0.3,0.1-0.7,0.2-1,0.3
		c-8.4,2.4-17,4.8-25.4,7.1l-4.1,1.1c-0.3,0.1-0.6,0.2-0.9,0.3c-0.3,0-0.6,0.1-0.9,0.2c0,0,0,0,0,0c-1.8,0.5-3.3,1.7-4.2,3.3
		c-0.9,1.6-1.1,3.5-0.6,5.3C206,374.2,208.7,376.3,211.8,376.3z"/>
	<path fill="#FFFFFF" stroke="#FFFFFF" stroke-width="5" stroke-miterlimit="10" d="M334.8,334.5c1.1,0,2.3-0.3,3.3-0.8
		c0.3-0.1,0.6-0.3,0.8-0.5c0.3-0.1,0.6-0.3,0.9-0.4c11.2-6.1,19.8-12.4,26.3-19.2c0.5-0.5,1-1,1.4-1.5c2.6-2.8,2.4-7.3-0.5-9.8
		c-1.3-1.2-2.9-1.8-4.7-1.8c-2,0-3.8,0.8-5.2,2.3c-0.4,0.4-0.7,0.8-1.1,1.2c-5.4,5.7-13.2,11.3-23,16.6c-0.3,0.1-0.5,0.3-0.8,0.5
		c-0.3,0.1-0.6,0.2-0.8,0.4c-3.4,1.8-4.7,6-2.9,9.4C329.9,333.1,332.2,334.5,334.8,334.5z"/>
	<path fill="#FFFFFF" stroke="#FFFFFF" stroke-width="5" stroke-miterlimit="10" d="M373.7,273.2c-3.8,0-6.9,3.1-7,6.9v0
		c0,3.8,3.1,7,7,7c3.8,0,7-3.1,7-7v0C380.7,276.3,377.6,273.2,373.7,273.2z"/>
	<path fill="#FFFFFF" stroke="#FFFFFF" stroke-width="5" stroke-miterlimit="10" d="M127,395.5c-1-2.7-3.6-4.4-6.5-4.4
		c-0.9,0-1.7,0.2-2.5,0.5c-0.6,0.2-1.2,0.5-1.8,0.7c-10.8,4.3-20.1,8.5-28.6,12.9c-0.3,0.1-0.6,0.3-0.8,0.5
		c-0.3,0.1-0.6,0.2-0.9,0.4c-3.4,1.8-4.7,6-2.9,9.4c1.2,2.3,3.6,3.7,6.2,3.7c1.1,0,2.2-0.3,3.2-0.8c0.3-0.1,0.5-0.3,0.8-0.5
		c0.3-0.1,0.6-0.2,0.8-0.4c7.9-4.1,17.1-8.2,27.3-12.3l0.5-0.2c0.4-0.2,0.8-0.3,1.2-0.5C126.6,403.1,128.4,399.1,127,395.5z"/>
</g>
</svg>
