<?xml version="1.0" encoding="utf-8"?>
<!-- Generator: Adobe Illustrator 18.0.0, SVG Export Plug-In . SVG Version: 6.00 Build 0)  -->
<!DOCTYPE svg PUBLIC "-//W3C//DTD SVG 1.1//EN" "http://www.w3.org/Graphics/SVG/1.1/DTD/svg11.dtd">
<svg version="1.1" id="Capa_1" xmlns="http://www.w3.org/2000/svg" xmlns:xlink="http://www.w3.org/1999/xlink" x="0px" y="0px"
	 viewBox="0 0 512 512" enable-background="new 0 0 512 512" xml:space="preserve">
<g>
	<path fill="#FFFFFF" d="M301.6,103.3c0-8.4-6.8-15.3-15.3-15.3H133.8c-8.4,0-15.3,6.8-15.3,15.3v122c0,8.4,6.8,15.3,15.3,15.3
		h152.6c8.4,0,15.3-6.8,15.3-15.3V103.3z M271.1,210.1H149.1v-91.5h122.1V210.1z"/>
	<path fill="#FFFFFF" d="M476.6,120l-60.8-30.5c-7.6-3.8-16.6-0.7-20.4,6.8c-3.8,7.5-0.7,16.7,6.9,20.5l23.2,11.6
		c-0.6,1.7-1.4,3.4-1.4,5.3c0,19.9,14.9,36.6,30.2,43v185.9c0,8.4-6.8,15.3-15.3,15.3c-8.4,0-15.3-6.8-15.3-15.3v-122
		c0-36.8-30.5-67.7-61-74.7V72.6c0-33.6-26.6-60.8-60.3-60.8H119.3c-33.6,0-61.8,27.2-61.8,60.8v341.5l-22.1,11
		c-5.2,2.6-8.4,7.9-8.4,13.6v45.8c0,8.4,7.6,15.5,16,15.5h335.6c8.4,0,14.5-7.1,14.5-15.5v-45.8c0-5.8-3.3-11.1-8.4-13.6l-22.1-11
		V197.5c15.3,6.3,30.5,23.1,30.5,43v122c0,25.2,20.5,45.8,45.8,45.8c25.2,0,45.8-20.5,45.8-45.8V133.6
		C484.7,127.8,481.8,122.6,476.6,120z M362.6,469.5H57.5v-21.3l22.1-11c5.2-2.6,8.4-7.9,8.4-13.6V72.6c0-16.8,14.4-30.3,31.2-30.3
		h183.1c16.8,0,29.8,13.5,29.8,30.3v350.9c0,5.8,3.3,11.1,8.4,13.6l22.1,11V469.5z"/>
</g>
</svg>
