<?xml version="1.0" encoding="iso-8859-1"?>
<!-- Generator: Adobe Illustrator 19.0.0, SVG Export Plug-In . SVG Version: 6.00 Build 0)  -->
<svg xmlns="http://www.w3.org/2000/svg" xmlns:xlink="http://www.w3.org/1999/xlink" version="1.1" id="Capa_1" x="0px" y="0px" viewBox="0 0 511.999 511.999" style="enable-background:new 0 0 511.999 511.999;" xml:space="preserve" width="512px" height="512px">
<g>
	<g>
		<path d="M352.001,288l-21.333,21.333L309.334,288l74.666-74.667l-85.333-85.333L224,202.665l-21.333-21.333L224,159.999L64.001,0    l-64,63.999l160,160l21.333-21.333l21.333,21.333l-32,32l32,32l-21.333,21.333l-10.667-10.667    c-11.782,11.782-11.782,30.885,0,42.667s30.885,11.782,42.666,0l-10.667-10.667l21.333-21.333l32,32l32-32l21.333,21.333    l-21.333,21.333l160,160l63.999-64L352.001,288z M160,181.333L42.668,63.999l21.333-21.333L181.334,160L160,181.333z     M256.001,298.667l-42.666-42.667l85.333-85.333l42.667,42.667L256.001,298.667z M330.667,352l21.333-21.333l117.334,117.334    l-21.333,21.333L330.667,352z" fill="#FFFFFF"/>
	</g>
</g>
<g>
	<g>
		<path d="M234.667,362.666C223.27,374.063,208.117,380.34,192,380.34c-16.118,0-31.27-6.276-42.667-17.674    c-23.526-23.526-23.526-61.807,0-85.333L128,255.999c-35.289,35.29-35.289,92.71,0,128c36.412,36.412,93.78,34.22,128,0    L234.667,362.666z" fill="#FFFFFF"/>
	</g>
</g>
<g>
	<g>
		<path d="M277.333,405.333c-47.052,47.053-123.613,47.053-170.666,0c-53.26-53.26-40.254-130.413,0-170.667l-21.333-21.333    c-53.495,53.495-64.154,149.179,0,213.333c51.497,51.497,147.435,65.898,213.332,0L277.333,405.333z" fill="#FFFFFF"/>
	</g>
</g>
<g>
</g>
<g>
</g>
<g>
</g>
<g>
</g>
<g>
</g>
<g>
</g>
<g>
</g>
<g>
</g>
<g>
</g>
<g>
</g>
<g>
</g>
<g>
</g>
<g>
</g>
<g>
</g>
<g>
</g>
</svg>
