<?xml version="1.0" encoding="utf-8"?>
<!-- Generator: Adobe Illustrator 18.0.0, SVG Export Plug-In . SVG Version: 6.00 Build 0)  -->
<!DOCTYPE svg PUBLIC "-//W3C//DTD SVG 1.1//EN" "http://www.w3.org/Graphics/SVG/1.1/DTD/svg11.dtd">
<svg version="1.1" id="Calque_1" xmlns="http://www.w3.org/2000/svg" xmlns:xlink="http://www.w3.org/1999/xlink" x="0px" y="0px"
	 viewBox="0 0 70 70" enable-background="new 0 0 70 70" xml:space="preserve">
<g id="Bounding_Boxes">
	<g id="ui_x5F_spec_x5F_header_copy_3">
	</g>
	<path fill="none" d="M1,0h70v70H1V0z"/>
</g>
<g id="Outline">
	<g id="ui_x5F_spec_x5F_header">
	</g>
	<path fill="#FFFFFF" d="M31.6,13.1c0.8,0,1.5,0.6,1.5,1.5v5.8h17.5v17.5h5.8c0.8,0,1.5,0.6,1.5,1.5s-0.6,1.5-1.5,1.5h-5.8v17.5
		h-6.2c-2-5.1-7-8.8-12.8-8.8s-10.8,3.6-12.8,8.8h-6.2v-6.2c5.1-2,8.7-7,8.7-12.8s-3.6-10.8-8.7-12.8l0-6.2h17.5v-5.8
		C30.2,13.8,30.8,13.1,31.6,13.1 M31.6,7.3c-4,0-7.3,3.3-7.3,7.3H12.7c-3.2,0-5.8,2.6-5.8,5.8v11.1h0.8c4.3,0,7.9,3.5,7.9,7.9
		s-3.5,7.9-7.9,7.9H6.8v11.1c0,3.2,2.6,5.8,5.8,5.8h11.1v-0.9c0-4.3,3.5-7.9,7.9-7.9s7.9,3.5,7.9,7.9v0.9h11.1
		c3.2,0,5.8-2.6,5.8-5.8V46.7c4,0,7.3-3.3,7.3-7.3s-3.3-7.3-7.3-7.3V20.4c0-3.2-2.6-5.8-5.8-5.8H38.9C38.9,10.6,35.7,7.3,31.6,7.3
		L31.6,7.3z"/>
</g>
</svg>
